<mxfile host="app.diagrams.net" modified="2020-09-27T08:40:58.168Z" agent="5.0 (Windows NT 10.0; Win64; x64) AppleWebKit/537.36 (KHTML, like Gecko) Chrome/85.0.4183.121 Safari/537.36 Edg/85.0.564.63" etag="ehj1B7WWKf-5XvoSVybk" version="13.7.5" type="github">
  <diagram id="aIvqDd1XLVdaYzIEuun5" name="Page-1">
    <mxGraphModel dx="1422" dy="794" grid="1" gridSize="10" guides="1" tooltips="1" connect="1" arrows="1" fold="1" page="1" pageScale="1" pageWidth="850" pageHeight="1100" math="0" shadow="0">
      <root>
        <mxCell id="0" />
        <mxCell id="1" parent="0" />
        <mxCell id="cPNrgrhCCT7sH9mjSgvV-10" style="edgeStyle=orthogonalEdgeStyle;rounded=0;orthogonalLoop=1;jettySize=auto;html=1;entryX=0;entryY=0.5;entryDx=0;entryDy=0;" edge="1" parent="1" source="cPNrgrhCCT7sH9mjSgvV-1" target="cPNrgrhCCT7sH9mjSgvV-2">
          <mxGeometry relative="1" as="geometry" />
        </mxCell>
        <mxCell id="cPNrgrhCCT7sH9mjSgvV-11" style="edgeStyle=orthogonalEdgeStyle;rounded=0;orthogonalLoop=1;jettySize=auto;html=1;" edge="1" parent="1" source="cPNrgrhCCT7sH9mjSgvV-1" target="cPNrgrhCCT7sH9mjSgvV-3">
          <mxGeometry relative="1" as="geometry" />
        </mxCell>
        <mxCell id="cPNrgrhCCT7sH9mjSgvV-13" style="edgeStyle=orthogonalEdgeStyle;rounded=0;orthogonalLoop=1;jettySize=auto;html=1;entryX=0;entryY=0.5;entryDx=0;entryDy=0;" edge="1" parent="1" source="cPNrgrhCCT7sH9mjSgvV-1" target="cPNrgrhCCT7sH9mjSgvV-4">
          <mxGeometry relative="1" as="geometry">
            <mxPoint x="520" y="520" as="targetPoint" />
          </mxGeometry>
        </mxCell>
        <mxCell id="cPNrgrhCCT7sH9mjSgvV-24" style="edgeStyle=orthogonalEdgeStyle;rounded=0;orthogonalLoop=1;jettySize=auto;html=1;entryX=0;entryY=0.5;entryDx=0;entryDy=0;" edge="1" parent="1" source="cPNrgrhCCT7sH9mjSgvV-1" target="cPNrgrhCCT7sH9mjSgvV-23">
          <mxGeometry relative="1" as="geometry" />
        </mxCell>
        <mxCell id="cPNrgrhCCT7sH9mjSgvV-1" value="User" style="shape=umlActor;verticalLabelPosition=bottom;verticalAlign=top;html=1;outlineConnect=0;" vertex="1" parent="1">
          <mxGeometry x="50" y="290" width="30" height="60" as="geometry" />
        </mxCell>
        <mxCell id="cPNrgrhCCT7sH9mjSgvV-6" value="" style="edgeStyle=orthogonalEdgeStyle;rounded=0;orthogonalLoop=1;jettySize=auto;html=1;" edge="1" parent="1" source="cPNrgrhCCT7sH9mjSgvV-2" target="cPNrgrhCCT7sH9mjSgvV-5">
          <mxGeometry relative="1" as="geometry" />
        </mxCell>
        <mxCell id="cPNrgrhCCT7sH9mjSgvV-2" value="Chatbox" style="ellipse;whiteSpace=wrap;html=1;" vertex="1" parent="1">
          <mxGeometry x="220" y="160" width="120" height="80" as="geometry" />
        </mxCell>
        <mxCell id="cPNrgrhCCT7sH9mjSgvV-19" style="edgeStyle=orthogonalEdgeStyle;rounded=0;orthogonalLoop=1;jettySize=auto;html=1;entryX=0;entryY=0.5;entryDx=0;entryDy=0;" edge="1" parent="1" source="cPNrgrhCCT7sH9mjSgvV-3" target="cPNrgrhCCT7sH9mjSgvV-14">
          <mxGeometry relative="1" as="geometry" />
        </mxCell>
        <mxCell id="cPNrgrhCCT7sH9mjSgvV-20" style="edgeStyle=orthogonalEdgeStyle;rounded=0;orthogonalLoop=1;jettySize=auto;html=1;" edge="1" parent="1" source="cPNrgrhCCT7sH9mjSgvV-3" target="cPNrgrhCCT7sH9mjSgvV-15">
          <mxGeometry relative="1" as="geometry" />
        </mxCell>
        <mxCell id="cPNrgrhCCT7sH9mjSgvV-3" value="Voice" style="ellipse;whiteSpace=wrap;html=1;" vertex="1" parent="1">
          <mxGeometry x="220" y="280" width="120" height="80" as="geometry" />
        </mxCell>
        <mxCell id="cPNrgrhCCT7sH9mjSgvV-21" style="edgeStyle=orthogonalEdgeStyle;rounded=0;orthogonalLoop=1;jettySize=auto;html=1;entryX=-0.008;entryY=0.638;entryDx=0;entryDy=0;entryPerimeter=0;" edge="1" parent="1" source="cPNrgrhCCT7sH9mjSgvV-4" target="cPNrgrhCCT7sH9mjSgvV-17">
          <mxGeometry relative="1" as="geometry" />
        </mxCell>
        <mxCell id="cPNrgrhCCT7sH9mjSgvV-22" style="edgeStyle=orthogonalEdgeStyle;rounded=0;orthogonalLoop=1;jettySize=auto;html=1;entryX=0;entryY=0.5;entryDx=0;entryDy=0;" edge="1" parent="1" source="cPNrgrhCCT7sH9mjSgvV-4" target="cPNrgrhCCT7sH9mjSgvV-16">
          <mxGeometry relative="1" as="geometry" />
        </mxCell>
        <mxCell id="cPNrgrhCCT7sH9mjSgvV-4" value="Video" style="ellipse;whiteSpace=wrap;html=1;" vertex="1" parent="1">
          <mxGeometry x="220" y="410" width="120" height="80" as="geometry" />
        </mxCell>
        <mxCell id="cPNrgrhCCT7sH9mjSgvV-5" value="Chatbox" style="ellipse;whiteSpace=wrap;html=1;" vertex="1" parent="1">
          <mxGeometry x="365" y="10" width="120" height="80" as="geometry" />
        </mxCell>
        <mxCell id="cPNrgrhCCT7sH9mjSgvV-14" value="Mute" style="ellipse;whiteSpace=wrap;html=1;" vertex="1" parent="1">
          <mxGeometry x="500" y="190" width="120" height="80" as="geometry" />
        </mxCell>
        <mxCell id="cPNrgrhCCT7sH9mjSgvV-15" value="Unmute" style="ellipse;whiteSpace=wrap;html=1;" vertex="1" parent="1">
          <mxGeometry x="500" y="290" width="120" height="80" as="geometry" />
        </mxCell>
        <mxCell id="cPNrgrhCCT7sH9mjSgvV-16" value="ON" style="ellipse;whiteSpace=wrap;html=1;" vertex="1" parent="1">
          <mxGeometry x="480" y="380" width="120" height="80" as="geometry" />
        </mxCell>
        <mxCell id="cPNrgrhCCT7sH9mjSgvV-17" value="OFF" style="ellipse;whiteSpace=wrap;html=1;" vertex="1" parent="1">
          <mxGeometry x="480" y="480" width="120" height="80" as="geometry" />
        </mxCell>
        <mxCell id="cPNrgrhCCT7sH9mjSgvV-28" style="edgeStyle=orthogonalEdgeStyle;rounded=0;orthogonalLoop=1;jettySize=auto;html=1;entryX=0;entryY=0.5;entryDx=0;entryDy=0;" edge="1" parent="1" source="cPNrgrhCCT7sH9mjSgvV-23" target="cPNrgrhCCT7sH9mjSgvV-25">
          <mxGeometry relative="1" as="geometry" />
        </mxCell>
        <mxCell id="cPNrgrhCCT7sH9mjSgvV-29" style="edgeStyle=orthogonalEdgeStyle;rounded=0;orthogonalLoop=1;jettySize=auto;html=1;entryX=0;entryY=0.5;entryDx=0;entryDy=0;" edge="1" parent="1" source="cPNrgrhCCT7sH9mjSgvV-23" target="cPNrgrhCCT7sH9mjSgvV-26">
          <mxGeometry relative="1" as="geometry" />
        </mxCell>
        <mxCell id="cPNrgrhCCT7sH9mjSgvV-23" value="Screen share" style="ellipse;whiteSpace=wrap;html=1;" vertex="1" parent="1">
          <mxGeometry x="220" y="620" width="120" height="80" as="geometry" />
        </mxCell>
        <mxCell id="cPNrgrhCCT7sH9mjSgvV-25" value="ON" style="ellipse;whiteSpace=wrap;html=1;" vertex="1" parent="1">
          <mxGeometry x="400" y="580" width="120" height="80" as="geometry" />
        </mxCell>
        <mxCell id="cPNrgrhCCT7sH9mjSgvV-26" value="OFF" style="ellipse;whiteSpace=wrap;html=1;" vertex="1" parent="1">
          <mxGeometry x="400" y="670" width="120" height="80" as="geometry" />
        </mxCell>
      </root>
    </mxGraphModel>
  </diagram>
</mxfile>
